<?xml version="1.0" encoding="UTF-8"?>
<!DOCTYPE svg PUBLIC "-//W3C//DTD SVG 1.1//EN" "http://www.w3.org/Graphics/SVG/1.1/DTD/svg11.dtd">
<!-- Creator: CorelDRAW X8 -->
<svg xmlns="http://www.w3.org/2000/svg" xml:space="preserve" width="251px" height="50px" version="1.1" style="shape-rendering:geometricPrecision; text-rendering:geometricPrecision; image-rendering:optimizeQuality; fill-rule:evenodd; clip-rule:evenodd"
viewBox="0 0 314 62"
 xmlns:xlink="http://www.w3.org/1999/xlink">
 <defs>
  <style type="text/css">
   <![CDATA[
    .fil2 {fill:#BDBFC1;fill-rule:nonzero}
    .fil1 {fill:#148AB5;fill-rule:nonzero}
    .fil0 {fill:#EBA10E;fill-rule:nonzero}
   ]]>
  </style>
 </defs>
 <g id="Layer_x0020_1">
  <metadata id="CorelCorpID_0Corel-Layer"/>
  <g id="_857707664">
   <path class="fil0" d="M0 62l0 -62 15 0 0 16 7 0c5,0 8,1 11,2 3,2 5,4 6,7 2,2 2,5 2,9 0,5 -1,9 -3,13 -2,5 -5,8 -9,11 -4,3 -9,4 -14,4l-15 0zm15 -12c2,-1 4,-1 6,-3 2,-2 3,-3 4,-5 1,-3 1,-5 1,-7 0,-2 0,-4 -1,-5 -2,-1 -3,-1 -6,-1l-4 0 0 21z"/>
   <path id="1" class="fil0" d="M61 16l0 46 -14 0 0 -46 14 0zm0 -16l0 12 -14 0 0 -12 14 0z"/>
   <polygon id="2" class="fil0" points="84,0 84,62 70,62 70,0 "/>
   <polygon id="3" class="fil0" points="107,0 107,62 93,62 93,0 "/>
   <polygon class="fil1" points="182,16 170,62 154,62 147,34 147,34 140,62 125,62 112,16 128,16 133,47 134,47 140,16 154,16 161,47 161,47 167,16 "/>
   <path id="1" class="fil1" d="M200 16l0 46 -15 0 0 -46 15 0zm0 -16l0 12 -15 0 0 -12 15 0z"/>
   <path id="2" class="fil1" d="M213 50c1,0 1,0 1,0 1,0 1,0 2,0 1,0 2,0 2,-1 0,-1 0,-2 -2,-4l-6 -8c-1,-2 -2,-3 -3,-5 -1,-1 -1,-3 -1,-5 0,-2 0,-4 1,-5 1,-2 2,-3 4,-4 2,-1 4,-2 7,-2l12 0 4 12 -7 0c-1,0 -2,0 -3,1 -1,0 -1,0 -1,1 0,1 1,2 2,4l6 6c3,4 4,8 4,11 0,2 0,4 -1,6 -1,1 -3,3 -4,4 -2,1 -4,1 -6,1l-15 0 -4 -12 8 0z"/>
   <path id="3" class="fil1" d="M239 34c0,-4 0,-7 1,-9 1,-2 2,-4 4,-6 2,-1 4,-2 7,-3 2,-1 5,-1 9,-1 4,0 8,0 10,1 3,1 6,2 7,4 2,2 3,4 3,8 0,3 -1,7 -3,9 -2,3 -4,5 -6,7 -2,2 -5,3 -7,5 1,1 4,1 8,1l6 0 -4 12 -9 0c-3,0 -6,0 -10,-2 -3,-1 -6,-3 -8,-6 -3,-3 -5,-6 -6,-9 -2,-4 -2,-7 -2,-11zm16 6c2,-1 4,-2 6,-4 3,-2 4,-4 4,-6 0,-2 -1,-2 -4,-2 -2,0 -4,0 -5,1 -2,1 -2,3 -2,5 0,2 0,4 1,6z"/>
  </g>
  <polygon class="fil2" points="294,27 294,16 291,16 291,15 300,15 300,16 296,16 296,27 "/>
  <polygon id="1" class="fil2" points="301,27 301,15 304,15 308,25 311,15 314,15 314,27 312,27 312,17 312,17 308,27 307,27 303,17 303,17 303,27 "/>
 </g>
</svg>
